<svg width="122" height="37" viewBox="0 0 122 37" fill="none" xmlns="http://www.w3.org/2000/svg">
<g filter="url(#filter0_d_2_206)">
<rect x="1" width="120" height="34" rx="2" fill="black"/>
<g clip-path="url(#clip0_2_206)">
<path d="M62.8598 14.3212C60.8114 14.3212 59.1448 15.9877 59.1448 18.0362C59.1448 20.0847 60.8113 21.7512 62.8598 21.7512C63.2716 21.7512 63.6766 21.6841 64.0634 21.5517C64.2091 21.5018 64.2868 21.3432 64.237 21.1975C64.1871 21.0517 64.0285 20.9739 63.8827 21.0239C63.5542 21.1363 63.2101 21.1933 62.8598 21.1933C61.119 21.1933 59.7027 19.7771 59.7027 18.0362C59.7027 16.2954 61.119 14.8791 62.8598 14.8791C64.6007 14.8791 66.0169 16.2954 66.0169 18.0362C66.0169 19.0438 65.5527 19.9674 64.7433 20.5701C64.6198 20.6622 64.5942 20.8369 64.6862 20.9605C64.7782 21.084 64.9529 21.1095 65.0765 21.0176C66.0147 20.3189 66.5748 19.2044 66.5748 18.0362C66.5749 15.9877 64.9083 14.3212 62.8598 14.3212Z" fill="white"/>
<path d="M62.8598 15.4193C62.3303 15.4193 61.8199 15.577 61.384 15.8753C61.2568 15.9623 61.2242 16.1359 61.3112 16.263C61.3982 16.3902 61.5718 16.4228 61.699 16.3357C62.0418 16.1012 62.4432 15.9773 62.8597 15.9773C63.995 15.9773 64.9186 16.9009 64.9186 18.0362C64.9186 19.1714 63.995 20.0951 62.8597 20.0951C61.7245 20.0951 60.8008 19.1714 60.8008 18.0362C60.8008 17.6955 60.8858 17.3579 61.0466 17.0599C61.1198 16.9243 61.0692 16.7551 60.9336 16.6819C60.7981 16.6088 60.6288 16.6594 60.5556 16.795C60.3511 17.1741 60.2429 17.6033 60.2429 18.0362C60.2429 19.4791 61.4168 20.653 62.8597 20.653C64.3026 20.653 65.4766 19.479 65.4766 18.0362C65.4766 16.5933 64.3026 15.4193 62.8598 15.4193Z" fill="white"/>
<path d="M56.0275 13.9312C55.3138 13.9312 54.7332 14.5117 54.7332 15.2255C54.7332 15.9392 55.3138 16.5198 56.0275 16.5198C56.7412 16.5198 57.3218 15.9392 57.3218 15.2255C57.3218 14.5117 56.7412 13.9312 56.0275 13.9312ZM56.0275 15.9619C55.6214 15.9619 55.2911 15.6315 55.2911 15.2255C55.2911 14.8195 55.6215 14.4891 56.0275 14.4891C56.4335 14.4891 56.7639 14.8195 56.7639 15.2255C56.7639 15.6315 56.4336 15.9619 56.0275 15.9619Z" fill="white"/>
<path d="M56.6938 19.9928H55.3611C54.9099 19.9928 54.5427 20.3599 54.5427 20.8112C54.5427 21.2625 54.9099 21.6296 55.3611 21.6296H56.6938C57.145 21.6296 57.5121 21.2625 57.5121 20.8112C57.5121 20.3599 57.145 19.9928 56.6938 19.9928ZM56.6938 21.0716H55.3611C55.2175 21.0716 55.1006 20.9548 55.1006 20.8112C55.1006 20.6676 55.2175 20.5507 55.3611 20.5507H56.6938C56.8374 20.5507 56.9542 20.6676 56.9542 20.8112C56.9542 20.9548 56.8374 21.0716 56.6938 21.0716Z" fill="white"/>
<path d="M67.5405 12.7987H67.4619C67.3338 12.7987 67.2526 12.6368 67.0977 12.2674C66.8404 11.6538 66.4516 10.7264 65.0292 10.7264H62.9547C61.5322 10.7264 61.1434 11.6538 60.8861 12.2674C60.7312 12.6368 60.65 12.7987 60.522 12.7987H59.194V12.277C59.194 11.772 58.783 11.361 58.278 11.361H56.6646C56.1595 11.361 55.7486 11.772 55.7486 12.277V12.7987H54.4596C53.6548 12.7987 53 13.4534 53 14.2583V16.4386C53 16.5927 53.1249 16.7176 53.279 16.7176C53.4331 16.7176 53.558 16.5927 53.558 16.4386V14.2583C53.558 13.7611 53.9625 13.3566 54.4596 13.3566H64.6639C64.8179 13.3566 64.9428 13.2318 64.9428 13.0777C64.9428 12.9236 64.8179 12.7987 64.6639 12.7987H61.2598C61.3115 12.6957 61.3568 12.5877 61.4006 12.4832C61.6477 11.8938 61.9033 11.2844 62.9547 11.2844H65.0291C66.0805 11.2844 66.3361 11.8938 66.5832 12.4832C66.627 12.5877 66.6723 12.6957 66.724 12.7987H65.7797C65.6256 12.7987 65.5007 12.9236 65.5007 13.0777C65.5007 13.2318 65.6256 13.3566 65.7797 13.3566H67.5405C68.0377 13.3566 68.4421 13.7611 68.4421 14.2583V21.8141C68.4421 22.3112 68.0376 22.7157 67.5405 22.7157H54.4596C53.9624 22.7157 53.5579 22.3112 53.5579 21.8141V17.5544C53.5579 17.4003 53.433 17.2755 53.279 17.2755C53.1249 17.2755 53 17.4003 53 17.5544V21.8141C53 22.6189 53.6548 23.2736 54.4596 23.2736H67.5405C68.3453 23.2736 69 22.6188 69 21.8141V14.2583C69.0001 13.4534 68.3453 12.7987 67.5405 12.7987ZM58.636 12.7987H56.3065V12.277C56.3065 12.0796 56.4671 11.919 56.6645 11.919H58.2779C58.4754 11.919 58.636 12.0796 58.636 12.277V12.7987H58.636Z" fill="white"/>
</g>
</g>
<defs>
<filter id="filter0_d_2_206" x="0" y="0" width="122" height="37" filterUnits="userSpaceOnUse" color-interpolation-filters="sRGB">
<feFlood flood-opacity="0" result="BackgroundImageFix"/>
<feColorMatrix in="SourceAlpha" type="matrix" values="0 0 0 0 0 0 0 0 0 0 0 0 0 0 0 0 0 0 127 0" result="hardAlpha"/>
<feOffset dy="2"/>
<feGaussianBlur stdDeviation="0.5"/>
<feComposite in2="hardAlpha" operator="out"/>
<feColorMatrix type="matrix" values="0 0 0 0 0 0 0 0 0 0 0 0 0 0 0 0 0 0 0.02 0"/>
<feBlend mode="normal" in2="BackgroundImageFix" result="effect1_dropShadow_2_206"/>
<feBlend mode="normal" in="SourceGraphic" in2="effect1_dropShadow_2_206" result="shape"/>
</filter>
<clipPath id="clip0_2_206">
<rect width="16" height="16" fill="white" transform="translate(53 9)"/>
</clipPath>
</defs>
</svg>
