<svg width="22" height="19" viewBox="0 0 22 19" fill="none" xmlns="http://www.w3.org/2000/svg">
<path d="M20.1909 0.616192L0.860633 16.8362C0.504943 17.1346 0.458546 17.6655 0.756961 18.0212C1.05542 18.3768 1.5863 18.4232 1.94194 18.1248L21.2722 1.90484C21.6279 1.60638 21.6743 1.0755 21.3758 0.719864C21.0774 0.364129 20.5466 0.317732 20.1909 0.616192Z" fill="black"/>
<path d="M0.645103 1.82769L19.9782 18.0501C20.3339 18.3486 20.8645 18.3025 21.1625 17.9473C21.4606 17.5921 21.4138 17.0616 21.0581 16.7631L1.72499 0.540732C1.3693 0.242273 0.838692 0.288254 0.540625 0.643477C0.242557 0.9987 0.289413 1.52923 0.645103 1.82769Z" fill="black"/>
</svg>
