<svg width="28" height="19" viewBox="0 0 28 19" fill="none" xmlns="http://www.w3.org/2000/svg">
<path d="M0.856708 1.71342H26.5586C27.0315 1.71342 27.4153 1.32957 27.4153 0.856708C27.4153 0.383774 27.0314 0 26.5586 0H0.856708C0.383845 0 0 0.383774 0 0.856708C0 1.32964 0.383845 1.71342 0.856708 1.71342Z" fill="black"/>
<path d="M26.5586 8.56726H0.856708C0.383774 8.56726 0 8.95111 0 9.42397C0 9.89683 0.383845 10.2807 0.856708 10.2807H26.5586C27.0315 10.2807 27.4153 9.89683 27.4153 9.42397C27.4153 8.95111 27.0315 8.56726 26.5586 8.56726Z" fill="black"/>
<path d="M26.5586 17.1346H0.856708C0.383774 17.1346 0 17.5185 0 17.9914C0 18.4643 0.383845 18.8481 0.856708 18.8481H26.5586C27.0315 18.8481 27.4153 18.4642 27.4153 17.9914C27.4154 17.5184 27.0315 17.1346 26.5586 17.1346Z" fill="black"/>
</svg>
