<svg width="46" height="32" viewBox="0 0 46 32" fill="none" xmlns="http://www.w3.org/2000/svg">
<path d="M45.9081 15.5485C41.9937 6.3451 33.0015 0.398071 23 0.398071C12.9985 0.398071 4.00649 6.34492 0.0919102 15.5485C-0.0306367 15.8366 -0.0306367 16.1619 0.0919102 16.4499C4.00622 25.6544 12.9983 31.6019 23 31.6019C33.0019 31.6019 41.994 25.6544 45.9081 16.4499C46.0306 16.1619 46.0306 15.8366 45.9081 15.5485ZM23 29.2988C14.088 29.2988 6.05933 24.0949 2.40862 15.9993C6.05942 7.90461 14.0883 2.70122 23 2.70122C31.9119 2.70122 39.9407 7.90461 43.5914 15.9992C39.9407 24.0947 31.912 29.2988 23 29.2988Z" fill="white"/>
<path d="M23 7.17957C18.1364 7.17957 14.1797 11.1364 14.1797 15.9999C14.1797 20.8634 18.1365 24.8202 23 24.8202C27.8635 24.8202 31.8203 20.8635 31.8203 15.9999C31.8203 11.1363 27.8635 7.17957 23 7.17957ZM23 22.5173C19.4064 22.5173 16.4827 19.5936 16.4827 16.0001C16.4827 12.4065 19.4064 9.4828 23 9.4828C26.5936 9.4828 29.5173 12.4065 29.5173 16.0001C29.5173 19.5936 26.5936 22.5173 23 22.5173Z" fill="white"/>
<path d="M22.9998 11.3171C20.4178 11.3171 18.3169 13.4179 18.3169 16.0001C18.3169 16.636 18.8323 17.1516 19.4684 17.1516C20.1045 17.1516 20.6199 16.636 20.6199 16.0001C20.6199 14.6878 21.6875 13.6202 22.9998 13.6202C23.6359 13.6202 24.1513 13.1046 24.1513 12.4687C24.1513 11.8326 23.6357 11.3171 22.9998 11.3171Z" fill="white"/>
</svg>
